<?xml version="1.0" encoding="iso-8859-1"?>
<!-- Generator: Adobe Illustrator 16.0.0, SVG Export Plug-In . SVG Version: 6.00 Build 0)  -->
<!DOCTYPE svg PUBLIC "-//W3C//DTD SVG 1.1//EN" "http://www.w3.org/Graphics/SVG/1.1/DTD/svg11.dtd">
<svg version="1.1" id="Layer_2" xmlns="http://www.w3.org/2000/svg" xmlns:xlink="http://www.w3.org/1999/xlink" x="0px" y="0px"
	 width="300px" height="300px" viewBox="0 0 300 300" enable-background="new 0 0 300 300" xml:space="preserve">
<g>
	<path d="M206.648,150.024c0-31.181-25.242-56.549-56.424-56.549s-56.736,25.368-56.736,56.549
		c0,20.648,11.512,38.739,27.512,48.611V235c0,15.74,12.76,28.5,28.5,28.5S178,250.74,178,235v-35.962
		C195,189.263,206.648,170.961,206.648,150.024z" 
  fill="currentColor"/>
	<rect x="145" y="38" width="10" height="37" 
  fill="currentColor"/>
	<rect x="65.033" y="79.032" transform="matrix(0.7071 0.7071 -0.7071 0.7071 83.8867 -34.4538)" width="36.999" height="10" 
  fill="currentColor"/>
	<rect x="37" y="146" width="37" height="10" 
  fill="currentColor"/>
	<rect x="65.031" y="211.968" transform="matrix(0.7071 -0.7071 0.7071 0.7071 -128.9501 122.606)" width="37" height="10" 
  fill="currentColor"/>
	<rect x="197.968" y="211.969" transform="matrix(-0.7071 -0.7071 0.7071 -0.7071 216.0955 523.4543)" width="37" height="10" 
  fill="currentColor"/>
	<rect x="225" y="145.501" width="37" height="10" 
  fill="currentColor"/>
	<rect x="197.969" y="79.033" transform="matrix(-0.7071 0.7071 -0.7071 -0.7071 428.9599 -9.6034)" width="37" height="10" 
  fill="currentColor"/>
</g>
</svg>
