<?xml version="1.0" encoding="iso-8859-1"?>
<!-- Generator: Adobe Illustrator 16.0.0, SVG Export Plug-In . SVG Version: 6.00 Build 0)  -->
<!DOCTYPE svg PUBLIC "-//W3C//DTD SVG 1.1//EN" "http://www.w3.org/Graphics/SVG/1.1/DTD/svg11.dtd">
<svg version="1.1" id="Layer_2" xmlns="http://www.w3.org/2000/svg" xmlns:xlink="http://www.w3.org/1999/xlink" x="0px" y="0px"
	 width="300px" height="300px" viewBox="0 0 600 600" enable-background="new 0 0 600 600" xml:space="preserve">
<g>
	<path d="M300.002,466.995c-92.084,0-167-74.916-167-167s74.916-167,167-167s167,74.916,167,167S392.086,466.995,300.002,466.995z
		 M300.002,148.995c-83.262,0-151,67.738-151,151s67.738,151,151,151s151-67.738,151-151S383.264,148.995,300.002,148.995z" fill="currentColor"/>
	<path d="M300.956,360.99c-20.95,0-40.862-9.63-54.631-26.42c-2.802-3.417-2.304-8.457,1.112-11.259
		c3.418-2.802,8.459-2.303,11.259,1.113c10.719,13.07,26.121,20.566,42.26,20.566c15.788,0,30.436-6.886,41.243-19.39
		c2.89-3.343,7.942-3.71,11.284-0.821c3.343,2.889,3.71,7.941,0.821,11.284C340.611,351.905,321.166,360.99,300.956,360.99z" fill="currentColor"/>
	<path d="M252.294,294.766c-8.427,0-15.283-6.863-15.283-15.298c0-8.427,6.856-15.282,15.283-15.282
		c8.435,0,15.297,6.855,15.297,15.282C267.591,287.903,260.729,294.766,252.294,294.766z" fill="currentColor"/>
	<path d="M347.693,294.766c-8.427,0-15.282-6.863-15.282-15.298c0-8.427,6.855-15.282,15.282-15.282
		c8.436,0,15.298,6.855,15.298,15.282C362.991,287.903,356.129,294.766,347.693,294.766z" fill="currentColor"/>
</g>
</svg>
