<?xml version="1.0" encoding="iso-8859-1"?>
<!-- Generator: Adobe Illustrator 16.0.0, SVG Export Plug-In . SVG Version: 6.00 Build 0)  -->
<!DOCTYPE svg PUBLIC "-//W3C//DTD SVG 1.1//EN" "http://www.w3.org/Graphics/SVG/1.1/DTD/svg11.dtd">
<svg version="1.1" xmlns="http://www.w3.org/2000/svg" xmlns:xlink="http://www.w3.org/1999/xlink" x="0px" y="0px" width="300px"
	 height="300px" viewBox="0 0 300 300" enable-background="new 0 0 300 300" xml:space="preserve">
<g id="Layer_2">
</g>
<g id="Isolation_Mode">
	<path d="M244.049,231h-63.666c-8.907,0-16.128,7.092-16.128,16c0,8.906,7.221,16,16.128,16h63.666c8.906,0,16.128-7.094,16.128-16
		C260.177,238.092,252.955,231,244.049,231z" fill="currentColor"/>
	<path d="M244.049,167h-63.666c-8.907,0-16.128,7.092-16.128,16c0,8.906,7.221,16,16.128,16h63.666c8.906,0,16.128-7.094,16.128-16
		C260.177,174.092,252.955,167,244.049,167z" fill="currentColor"/>
	<path d="M261.17,119.667c0,9.287-7.555,16.833-16.842,16.833c-9.277,0-16.833-7.546-16.833-16.833s7.556-16.833,16.833-16.833
		C253.615,102.834,261.17,110.38,261.17,119.667z" fill="currentColor"/>
	<path d="M227.495,56.002c0-9.287,7.556-16.833,16.833-16.833c9.287,0,16.842,7.546,16.842,16.833s-7.555,16.833-16.842,16.833
		C235.051,72.835,227.495,65.289,227.495,56.002z" fill="currentColor"/>
	<path d="M70.175,119.667c0,9.287-7.556,16.833-16.842,16.833c-9.278,0-16.833-7.546-16.833-16.833s7.555-16.833,16.833-16.833
		C62.619,102.834,70.175,110.38,70.175,119.667z" fill="currentColor"/>
	<path d="M53.336,39.165c-9.284,0-16.837,7.553-16.837,16.836s7.553,16.836,16.837,16.836c9.283,0,16.836-7.553,16.836-16.836
		S62.619,39.165,53.336,39.165z" fill="currentColor"/>
	<path d="M62.11,183.332c0,4.839-3.938,8.77-8.777,8.77s-8.769-3.931-8.769-8.77s3.93-8.769,8.769-8.769
		S62.11,178.493,62.11,183.332z" fill="currentColor"/>
	<path d="M133.84,246.997c0,9.287-7.556,16.833-16.842,16.833c-9.277,0-16.833-7.546-16.833-16.833s7.556-16.833,16.833-16.833
		C126.284,230.164,133.84,237.71,133.84,246.997z" fill="currentColor"/>
	<path d="M70.175,246.997c0,9.287-7.556,16.833-16.842,16.833c-9.278,0-16.833-7.546-16.833-16.833s7.555-16.833,16.833-16.833
		C62.619,230.164,70.175,237.71,70.175,246.997z" fill="currentColor"/>
	<path d="M125.775,183.332c0,4.839-3.938,8.77-8.777,8.77c-4.838,0-8.769-3.931-8.769-8.77s3.931-8.769,8.769-8.769
		C121.837,174.563,125.775,178.493,125.775,183.332z" fill="currentColor"/>
	<path d="M180.666,64.773c4.837,0,8.771-3.936,8.771-8.772s-3.935-8.772-8.771-8.772s-8.772,3.935-8.772,8.772
		S175.829,64.773,180.666,64.773z" fill="currentColor"/>
</g>
</svg>
