<?xml version="1.0" encoding="iso-8859-1"?>
<!-- Generator: Adobe Illustrator 16.0.0, SVG Export Plug-In . SVG Version: 6.00 Build 0)  -->
<!DOCTYPE svg PUBLIC "-//W3C//DTD SVG 1.1//EN" "http://www.w3.org/Graphics/SVG/1.1/DTD/svg11.dtd">
<svg version="1.1" id="Layer_2" xmlns="http://www.w3.org/2000/svg" xmlns:xlink="http://www.w3.org/1999/xlink" x="0px" y="0px"
	 width="300px" height="300px" viewBox="0 0 600 600" enable-background="new 0 0 600 600" xml:space="preserve">
<g>
	<path d="M300.957,360.999c-20.95,0-40.862-9.63-54.631-26.42c-2.802-3.417-2.304-8.457,1.112-11.259
		c3.419-2.802,8.459-2.303,11.259,1.113c10.719,13.07,26.121,20.566,42.26,20.566c15.788,0,30.436-6.886,41.243-19.39
		c2.89-3.343,7.942-3.71,11.284-0.821c3.343,2.889,3.71,7.941,0.821,11.284C340.612,351.914,321.167,360.999,300.957,360.999z"  fill="currentColor"/>
	<path d="M252.295,294.774c-8.427,0-15.283-6.863-15.283-15.298c0-8.427,6.856-15.282,15.283-15.282
		c8.435,0,15.297,6.855,15.297,15.282C267.592,287.912,260.729,294.774,252.295,294.774z"  fill="currentColor"/>
	<path d="M347.694,294.774c-8.427,0-15.282-6.863-15.282-15.298c0-8.427,6.855-15.282,15.282-15.282
		c8.436,0,15.298,6.855,15.298,15.282C362.992,287.912,356.13,294.774,347.694,294.774z"  fill="currentColor"/>
	<path d="M349.097,442.805c-15.399,5.309-31.914,8.199-49.094,8.199c-83.262,0-151-67.738-151-151s67.738-151,151-151
		s151,67.738,151,151c0,17.179-2.891,33.694-8.199,49.094c5.213,1.052,10.336,2.638,15.294,4.741
		c5.77-16.898,8.905-35.007,8.905-53.835c0-92.084-74.916-167-167-167s-167,74.916-167,167s74.916,167,167,167
		c18.828,0,36.937-3.136,53.836-8.906C351.734,453.141,350.148,448.018,349.097,442.805z"  fill="currentColor"/>
	<path d="M427.003,511.504c-22.57,0-43.79-8.789-59.75-24.75c-15.957-15.956-24.745-37.176-24.746-59.748
		c-0.001-22.574,8.787-43.794,24.746-59.752c15.957-15.958,37.177-24.746,59.749-24.746c22.574,0,43.794,8.788,59.751,24.746
		c15.961,15.961,24.751,37.181,24.75,59.752c-0.001,22.57-8.79,43.789-24.75,59.748
		C470.794,502.715,449.573,511.504,427.003,511.504z M427.002,352.508c-19.901,0-38.609,7.748-52.679,21.816
		c-14.069,14.069-21.816,32.778-21.816,52.682c0.001,19.901,7.749,38.609,21.816,52.678c14.072,14.071,32.78,21.82,52.68,21.82
		s38.608-7.749,52.68-21.82c14.07-14.071,21.819-32.778,21.82-52.678c0.001-19.9-7.749-38.609-21.82-52.682
		C465.613,360.256,446.905,352.508,427.002,352.508z"  fill="currentColor"/>
	<path d="M419.867,449.178c-9.727,0-18.96-3.725-25.674-10.438c-7.619-7.62-11.359-18.358-10.262-29.462
		c0.271-2.748,2.713-4.76,5.467-4.484c2.748,0.271,4.756,2.719,4.484,5.467c-0.801,8.112,1.889,15.915,7.382,21.408
		c5.372,5.371,12.706,8.004,20.657,7.435c2.785-0.215,5.149,1.869,5.35,4.623c0.201,2.754-1.869,5.149-4.623,5.35
		C421.718,449.145,420.79,449.178,419.867,449.178z"  fill="currentColor"/>
	<path d="M406.519,400.654c-2.31,0-4.481-0.9-6.116-2.536c-3.367-3.367-3.365-8.851,0.004-12.223
		c1.634-1.633,3.804-2.532,6.111-2.532c2.309,0,4.479,0.899,6.11,2.531c3.372,3.372,3.375,8.856,0.006,12.225
		C410.999,399.755,408.827,400.654,406.519,400.654z"  fill="currentColor"/>
	<path d="M440.248,434.384c-2.309,0-4.481-0.9-6.116-2.536c-3.368-3.367-3.366-8.852,0.004-12.224
		c1.634-1.633,3.803-2.532,6.111-2.532c2.308,0,4.478,0.899,6.109,2.531c3.373,3.372,3.376,8.857,0.007,12.226
		C444.729,433.483,442.557,434.384,440.248,434.384z"  fill="currentColor"/>
</g>
</svg>
