<?xml version="1.0" encoding="iso-8859-1"?>
<!-- Generator: Adobe Illustrator 16.0.0, SVG Export Plug-In . SVG Version: 6.00 Build 0)  -->
<!DOCTYPE svg PUBLIC "-//W3C//DTD SVG 1.1//EN" "http://www.w3.org/Graphics/SVG/1.1/DTD/svg11.dtd">
<svg version="1.1" id="Layer_2" xmlns="http://www.w3.org/2000/svg" xmlns:xlink="http://www.w3.org/1999/xlink" x="0px" y="0px"
	 width="300px" height="300px" viewBox="0 0 600 600" enable-background="new 0 0 600 600" xml:space="preserve">
<g>
	<path d="M487,521c-2.762,0-5-2.238-5-5V352c0-2.762,2.238-5,5-5s5,2.238,5,5v164C492,518.762,489.762,521,487,521z" fill="currentColor"/>
	<path d="M458.029,317.574c-0.369,3.354-0.838,6.679-1.412,9.967c0.019,0,0.037-0.001,0.057-0.001c14.061,0,25.5,11.439,25.5,25.5
		c0,2.762,2.238,5,5,5s5-2.238,5-5C492.174,333.92,476.978,318.29,458.029,317.574z" fill="currentColor"/>
	<path d="M300.001,466.995c-92.084,0-167-74.916-167-167s74.916-167,167-167s167,74.916,167,167S392.085,466.995,300.001,466.995z
		 M300.001,148.995c-83.262,0-151,67.738-151,151s67.738,151,151,151s151-67.738,151-151S383.263,148.995,300.001,148.995z" fill="currentColor"/>
	<path d="M300.955,360.99c-20.95,0-40.862-9.63-54.631-26.42c-2.802-3.417-2.304-8.457,1.112-11.259
		c3.419-2.802,8.459-2.303,11.259,1.113c10.719,13.07,26.121,20.566,42.26,20.566c15.788,0,30.436-6.886,41.243-19.39
		c2.89-3.343,7.943-3.71,11.284-0.821c3.343,2.889,3.71,7.941,0.821,11.284C340.61,351.905,321.165,360.99,300.955,360.99z" fill="currentColor"/>
	<path d="M252,317.143c-20.77,0-37.667-16.897-37.667-37.667S231.23,241.809,252,241.809s37.667,16.897,37.667,37.667
		S272.77,317.143,252,317.143z M252,251.809c-15.256,0-27.667,12.411-27.667,27.667s12.411,27.667,27.667,27.667
		s27.667-12.411,27.667-27.667S267.256,251.809,252,251.809z" fill="currentColor"/>
	<path d="M348,317.143c-20.77,0-37.667-16.897-37.667-37.667S327.23,241.809,348,241.809s37.667,16.897,37.667,37.667
		S368.77,317.143,348,317.143z M348,251.809c-15.256,0-27.667,12.411-27.667,27.667s12.411,27.667,27.667,27.667
		s27.667-12.411,27.667-27.667S363.256,251.809,348,251.809z" fill="currentColor"/>
	<path d="M320.333,282h-10c0-6-4.654-10.375-10.375-10.375S289.583,276,289.583,282h-10c0-11,9.141-20.375,20.375-20.375
		S320.333,271,320.333,282z" fill="currentColor"/>
</g>
</svg>
