<?xml version="1.0" encoding="iso-8859-1"?>
<!-- Generator: Adobe Illustrator 16.0.0, SVG Export Plug-In . SVG Version: 6.00 Build 0)  -->
<!DOCTYPE svg PUBLIC "-//W3C//DTD SVG 1.1//EN" "http://www.w3.org/Graphics/SVG/1.1/DTD/svg11.dtd">
<svg version="1.1" id="Layer_2" xmlns="http://www.w3.org/2000/svg" xmlns:xlink="http://www.w3.org/1999/xlink" x="0px" y="0px"
	 width="300px" height="300px" viewBox="0 0 600 600" enable-background="new 0 0 600 600" xml:space="preserve">

<g>
	<path d="M439.797,375.821c-1.6,2.941-3.297,5.821-5.072,8.647c23.346,16.562,38.609,43.8,38.609,74.538
		c0,50.361-40.972,91.334-91.333,91.334c-33.77,0-63.315-18.424-79.119-45.746c-1.774,3.298-3.738,6.479-5.872,9.531
		c18.088,27.796,49.427,46.215,84.991,46.215c55.875,0,101.333-45.458,101.333-101.334
		C483.334,424.599,466.091,394.146,439.797,375.821z" fill="currentColor"/>
	<path d="M300.576,361.002c-20.95,0-40.862-9.63-54.632-26.42c-2.802-3.417-2.303-8.457,1.113-11.259
		c3.416-2.801,8.456-2.303,11.259,1.113c10.718,13.07,26.121,20.566,42.26,20.566c15.788,0,30.436-6.886,41.243-19.39
		c2.889-3.343,7.942-3.71,11.284-0.821c3.343,2.889,3.71,7.941,0.821,11.284C340.231,351.917,320.786,361.002,300.576,361.002z" fill="currentColor"/>
	<path d="M252.294,294.777c-8.427,0-15.283-6.863-15.283-15.298c0-8.427,6.856-15.282,15.283-15.282
		c8.435,0,15.297,6.855,15.297,15.282C267.591,287.915,260.729,294.777,252.294,294.777z" fill="currentColor"/>
	<path d="M347.693,294.777c-8.427,0-15.282-6.863-15.282-15.298c0-8.427,6.855-15.282,15.282-15.282
		c8.436,0,15.298,6.855,15.298,15.282C362.991,287.915,356.129,294.777,347.693,294.777z" fill="currentColor"/>
	<path d="M300.001,133.007c-92.084,0-167,74.916-167,167c0,31.024,8.514,60.094,23.313,85.012c4.101-3.423,8.492-6.51,13.128-9.222
		c-12.989-22.29-20.441-48.185-20.441-75.79c0-83.262,67.738-151,151-151s151,67.738,151,151
		c0,78.561-60.309,143.29-137.058,150.351c0.254,2.85,0.391,5.733,0.391,8.649c0,2.491-0.095,4.96-0.28,7.403
		c85.532-7.161,152.947-79.053,152.947-166.403C467.001,207.923,392.085,133.007,300.001,133.007z" fill="currentColor"/>
	<path d="M218.001,560.341c-55.875,0-101.333-45.458-101.333-101.334c0-55.875,45.458-101.333,101.333-101.333
		s101.333,45.458,101.333,101.333C319.334,514.883,273.876,560.341,218.001,560.341z M218.001,367.674
		c-50.361,0-91.333,40.972-91.333,91.333s40.972,91.334,91.333,91.334s91.333-40.973,91.333-91.334S268.362,367.674,218.001,367.674
		z" fill="currentColor"/>
</g>
</svg>
