<?xml version="1.0" encoding="iso-8859-1"?>
<!-- Generator: Adobe Illustrator 16.0.0, SVG Export Plug-In . SVG Version: 6.00 Build 0)  -->
<!DOCTYPE svg PUBLIC "-//W3C//DTD SVG 1.1//EN" "http://www.w3.org/Graphics/SVG/1.1/DTD/svg11.dtd">
<svg version="1.1" xmlns="http://www.w3.org/2000/svg" xmlns:xlink="http://www.w3.org/1999/xlink" x="0px" y="0px" width="300px"
	 height="300px" viewBox="0 0 300 300" enable-background="new 0 0 300 300" xml:space="preserve">


<g >
	<path d="M150.648,191.478c-14.245,0-27.785-6.549-37.148-17.967c-1.905-2.322-1.566-5.75,0.757-7.655
		c2.321-1.905,5.751-1.566,7.655,0.757c7.289,8.888,17.763,13.984,28.736,13.984c10.735,0,20.696-4.683,28.047-13.186
		c1.964-2.273,5.401-2.523,7.673-0.558c2.272,1.965,2.522,5.399,0.558,7.673C177.614,185.299,164.392,191.478,150.648,191.478z" fill="currentColor"/>
	
			<path d="M150,36.44C87.38,36.44,36.44,87.38,36.44,150S87.38,263.56,150,263.56S263.56,212.62,263.56,150S212.62,36.44,150,36.44
				z M150,252.68c-56.62,0-102.68-46.06-102.68-102.68S93.38,47.32,150,47.32S252.68,93.38,252.68,150S206.62,252.68,150,252.68z" fill="currentColor"/>
			<path d="M182.43,125.65c-5.729,0-10.39,4.66-10.39,10.39c0,5.74,4.66,10.4,10.39,10.4c5.74,0,10.4-4.66,10.4-10.4
				C192.83,130.31,188.17,125.65,182.43,125.65z" fill="currentColor"/>
	
						<path d="M127.96,136.04c0,5.74-4.67,10.4-10.4,10.4c-5.729,0-10.39-4.66-10.39-10.4c0-5.73,4.66-10.39,10.39-10.39
							C123.29,125.65,127.96,130.31,127.96,136.04z" fill="currentColor"/>
				
						<path d="M192.83,136.04c0,5.74-4.66,10.4-10.4,10.4c-5.729,0-10.39-4.66-10.39-10.4c0-5.73,4.66-10.39,10.39-10.39
							C188.17,125.65,192.83,130.31,192.83,136.04z" fill="currentColor"/>
					
</g>
</svg>
