<?xml version="1.0" encoding="utf-8"?>
<!-- Generator: Adobe Illustrator 16.0.0, SVG Export Plug-In . SVG Version: 6.00 Build 0)  -->
<!DOCTYPE svg PUBLIC "-//W3C//DTD SVG 1.1//EN" "http://www.w3.org/Graphics/SVG/1.1/DTD/svg11.dtd">
<svg version="1.1" xmlns="http://www.w3.org/2000/svg" xmlns:xlink="http://www.w3.org/1999/xlink" x="0px" y="0px" width="300px"
	 height="300px" viewBox="0 0 300 300" enable-background="new 0 0 300 300" xml:space="preserve">
<g id="grid" display="none">
	<g display="inline">
		<rect x="-0.5" y="0.5" fill="#FFFFFF" stroke="#000000" stroke-miterlimit="10" width="38" height="37"/>
		<rect x="37.5" y="0.5" fill="#FFFFFF" stroke="#000000" stroke-miterlimit="10" width="38" height="37"/>
		<rect x="75.5" y="0.5" fill="#FFFFFF" stroke="#000000" stroke-miterlimit="10" width="37" height="37"/>
		<rect x="112.5" y="0.5" fill="#FFFFFF" stroke="#000000" stroke-miterlimit="10" width="37" height="37"/>
		<rect x="149.5" y="0.5" fill="#FFFFFF" stroke="#000000" stroke-miterlimit="10" width="38" height="37"/>
		<rect x="187.5" y="0.5" fill="#FFFFFF" stroke="#000000" stroke-miterlimit="10" width="37" height="37"/>
		<rect x="224.5" y="0.5" fill="#FFFFFF" stroke="#000000" stroke-miterlimit="10" width="38" height="37"/>
		<rect x="262.5" y="0.5" fill="#FFFFFF" stroke="#000000" stroke-miterlimit="10" width="37" height="37"/>
		<rect x="-0.5" y="37.5" fill="#FFFFFF" stroke="#000000" stroke-miterlimit="10" width="38" height="38"/>
		<rect x="37.5" y="37.5" fill="#FFFFFF" stroke="#000000" stroke-miterlimit="10" width="38" height="38"/>
		<rect x="75.5" y="37.5" fill="#FFFFFF" stroke="#000000" stroke-miterlimit="10" width="37" height="38"/>
		<rect x="112.5" y="37.5" fill="#FFFFFF" stroke="#000000" stroke-miterlimit="10" width="37" height="38"/>
		<rect x="149.5" y="37.5" fill="#FFFFFF" stroke="#000000" stroke-miterlimit="10" width="38" height="38"/>
		<rect x="187.5" y="37.5" fill="#FFFFFF" stroke="#000000" stroke-miterlimit="10" width="37" height="38"/>
		<rect x="224.5" y="37.5" fill="#FFFFFF" stroke="#000000" stroke-miterlimit="10" width="38" height="38"/>
		<rect x="262.5" y="37.5" fill="#FFFFFF" stroke="#000000" stroke-miterlimit="10" width="37" height="38"/>
		<rect x="-0.5" y="75.5" fill="#FFFFFF" stroke="#000000" stroke-miterlimit="10" width="38" height="37"/>
		<rect x="37.5" y="75.5" fill="#FFFFFF" stroke="#000000" stroke-miterlimit="10" width="38" height="37"/>
		<rect x="75.5" y="75.5" fill="#FFFFFF" stroke="#000000" stroke-miterlimit="10" width="37" height="37"/>
		<rect x="112.5" y="75.5" fill="#FFFFFF" stroke="#000000" stroke-miterlimit="10" width="37" height="37"/>
		<rect x="149.5" y="75.5" fill="#FFFFFF" stroke="#000000" stroke-miterlimit="10" width="38" height="37"/>
		<rect x="187.5" y="75.5" fill="#FFFFFF" stroke="#000000" stroke-miterlimit="10" width="37" height="37"/>
		<rect x="224.5" y="75.5" fill="#FFFFFF" stroke="#000000" stroke-miterlimit="10" width="38" height="37"/>
		<rect x="262.5" y="75.5" fill="#FFFFFF" stroke="#000000" stroke-miterlimit="10" width="37" height="37"/>
		<rect x="-0.5" y="112.5" fill="#FFFFFF" stroke="#000000" stroke-miterlimit="10" width="38" height="38"/>
		<rect x="37.5" y="112.5" fill="#FFFFFF" stroke="#000000" stroke-miterlimit="10" width="38" height="38"/>
		<rect x="75.5" y="112.5" fill="#FFFFFF" stroke="#000000" stroke-miterlimit="10" width="37" height="38"/>
		<rect x="112.5" y="112.5" fill="#FFFFFF" stroke="#000000" stroke-miterlimit="10" width="37" height="38"/>
		<rect x="149.5" y="112.5" fill="#FFFFFF" stroke="#000000" stroke-miterlimit="10" width="38" height="38"/>
		<rect x="187.5" y="112.5" fill="#FFFFFF" stroke="#000000" stroke-miterlimit="10" width="37" height="38"/>
		<rect x="224.5" y="112.5" fill="#FFFFFF" stroke="#000000" stroke-miterlimit="10" width="38" height="38"/>
		<rect x="262.5" y="112.5" fill="#FFFFFF" stroke="#000000" stroke-miterlimit="10" width="37" height="38"/>
		<rect x="-0.5" y="150.5" fill="#FFFFFF" stroke="#000000" stroke-miterlimit="10" width="38" height="37"/>
		<rect x="37.5" y="150.5" fill="#FFFFFF" stroke="#000000" stroke-miterlimit="10" width="38" height="37"/>
		<rect x="75.5" y="150.5" fill="#FFFFFF" stroke="#000000" stroke-miterlimit="10" width="37" height="37"/>
		<rect x="112.5" y="150.5" fill="#FFFFFF" stroke="#000000" stroke-miterlimit="10" width="37" height="37"/>
		<rect x="149.5" y="150.5" fill="#FFFFFF" stroke="#000000" stroke-miterlimit="10" width="38" height="37"/>
		<rect x="187.5" y="150.5" fill="#FFFFFF" stroke="#000000" stroke-miterlimit="10" width="37" height="37"/>
		<rect x="224.5" y="150.5" fill="#FFFFFF" stroke="#000000" stroke-miterlimit="10" width="38" height="37"/>
		<rect x="262.5" y="150.5" fill="#FFFFFF" stroke="#000000" stroke-miterlimit="10" width="37" height="37"/>
		<rect x="-0.5" y="187.5" fill="#FFFFFF" stroke="#000000" stroke-miterlimit="10" width="38" height="38"/>
		<rect x="37.5" y="187.5" fill="#FFFFFF" stroke="#000000" stroke-miterlimit="10" width="38" height="38"/>
		<rect x="75.5" y="187.5" fill="#FFFFFF" stroke="#000000" stroke-miterlimit="10" width="37" height="38"/>
		<rect x="112.5" y="187.5" fill="#FFFFFF" stroke="#000000" stroke-miterlimit="10" width="37" height="38"/>
		<rect x="149.5" y="187.5" fill="#FFFFFF" stroke="#000000" stroke-miterlimit="10" width="38" height="38"/>
		<rect x="187.5" y="187.5" fill="#FFFFFF" stroke="#000000" stroke-miterlimit="10" width="37" height="38"/>
		<rect x="224.5" y="187.5" fill="#FFFFFF" stroke="#000000" stroke-miterlimit="10" width="38" height="38"/>
		<rect x="262.5" y="187.5" fill="#FFFFFF" stroke="#000000" stroke-miterlimit="10" width="37" height="38"/>
		<rect x="-0.5" y="225.5" fill="#FFFFFF" stroke="#000000" stroke-miterlimit="10" width="38" height="37"/>
		<rect x="37.5" y="225.5" fill="#FFFFFF" stroke="#000000" stroke-miterlimit="10" width="38" height="37"/>
		<rect x="75.5" y="225.5" fill="#FFFFFF" stroke="#000000" stroke-miterlimit="10" width="37" height="37"/>
		<rect x="112.5" y="225.5" fill="#FFFFFF" stroke="#000000" stroke-miterlimit="10" width="37" height="37"/>
		<rect x="149.5" y="225.5" fill="#FFFFFF" stroke="#000000" stroke-miterlimit="10" width="38" height="37"/>
		<rect x="187.5" y="225.5" fill="#FFFFFF" stroke="#000000" stroke-miterlimit="10" width="37" height="37"/>
		<rect x="224.5" y="225.5" fill="#FFFFFF" stroke="#000000" stroke-miterlimit="10" width="38" height="37"/>
		<rect x="262.5" y="225.5" fill="#FFFFFF" stroke="#000000" stroke-miterlimit="10" width="37" height="37"/>
		<rect x="-0.5" y="262.5" fill="#FFFFFF" stroke="#000000" stroke-miterlimit="10" width="38" height="38"/>
		<rect x="37.5" y="262.5" fill="#FFFFFF" stroke="#000000" stroke-miterlimit="10" width="38" height="38"/>
		<rect x="75.5" y="262.5" fill="#FFFFFF" stroke="#000000" stroke-miterlimit="10" width="37" height="38"/>
		<rect x="112.5" y="262.5" fill="#FFFFFF" stroke="#000000" stroke-miterlimit="10" width="37" height="38"/>
		<rect x="149.5" y="262.5" fill="#FFFFFF" stroke="#000000" stroke-miterlimit="10" width="38" height="38"/>
		<rect x="187.5" y="262.5" fill="#FFFFFF" stroke="#000000" stroke-miterlimit="10" width="37" height="38"/>
		<rect x="224.5" y="262.5" fill="#FFFFFF" stroke="#000000" stroke-miterlimit="10" width="38" height="38"/>
		<rect x="262.5" y="262.5" fill="#FFFFFF" stroke="#000000" stroke-miterlimit="10" width="37" height="38"/>
	</g>
</g>
<g id="Layer_2">
	<g id="stair">
	</g>
	<g id="step">
		<g>
			<polygon stroke="#000000" stroke-miterlimit="10" points="262.5,112.5 262.5,262.5 37.5,262.5 37.5,187.5 149.5,187.5 
				149.5,112.5 			"/>
		</g>
	</g>
	<g id="wisth">
	</g>
	<g id="alert">
	</g>
	<g id="light">
	</g>
	<g id="slope">
	</g>
</g>
</svg>
