<?xml version="1.0" encoding="utf-8"?>
<!-- Generator: Adobe Illustrator 16.0.0, SVG Export Plug-In . SVG Version: 6.00 Build 0)  -->
<!DOCTYPE svg PUBLIC "-//W3C//DTD SVG 1.1//EN" "http://www.w3.org/Graphics/SVG/1.1/DTD/svg11.dtd">
<svg version="1.1" xmlns="http://www.w3.org/2000/svg" xmlns:xlink="http://www.w3.org/1999/xlink" x="0px" y="0px" width="300px"
	 height="300px" viewBox="0 0 300 300" enable-background="new 0 0 300 300" xml:space="preserve">
<g id="grid" display="none">
	<g display="inline">
		<rect x="-0.5" y="0.5" fill="#FFFFFF" stroke="#000000" stroke-miterlimit="10" width="38" height="37"/>
		<rect x="37.5" y="0.5" fill="#FFFFFF" stroke="#000000" stroke-miterlimit="10" width="38" height="37"/>
		<rect x="75.5" y="0.5" fill="#FFFFFF" stroke="#000000" stroke-miterlimit="10" width="37" height="37"/>
		<rect x="112.5" y="0.5" fill="#FFFFFF" stroke="#000000" stroke-miterlimit="10" width="37" height="37"/>
		<rect x="149.5" y="0.5" fill="#FFFFFF" stroke="#000000" stroke-miterlimit="10" width="38" height="37"/>
		<rect x="187.5" y="0.5" fill="#FFFFFF" stroke="#000000" stroke-miterlimit="10" width="37" height="37"/>
		<rect x="224.5" y="0.5" fill="#FFFFFF" stroke="#000000" stroke-miterlimit="10" width="38" height="37"/>
		<rect x="262.5" y="0.5" fill="#FFFFFF" stroke="#000000" stroke-miterlimit="10" width="37" height="37"/>
		<rect x="-0.5" y="37.5" fill="#FFFFFF" stroke="#000000" stroke-miterlimit="10" width="38" height="38"/>
		<rect x="37.5" y="37.5" fill="#FFFFFF" stroke="#000000" stroke-miterlimit="10" width="38" height="38"/>
		<rect x="75.5" y="37.5" fill="#FFFFFF" stroke="#000000" stroke-miterlimit="10" width="37" height="38"/>
		<rect x="112.5" y="37.5" fill="#FFFFFF" stroke="#000000" stroke-miterlimit="10" width="37" height="38"/>
		<rect x="149.5" y="37.5" fill="#FFFFFF" stroke="#000000" stroke-miterlimit="10" width="38" height="38"/>
		<rect x="187.5" y="37.5" fill="#FFFFFF" stroke="#000000" stroke-miterlimit="10" width="37" height="38"/>
		<rect x="224.5" y="37.5" fill="#FFFFFF" stroke="#000000" stroke-miterlimit="10" width="38" height="38"/>
		<rect x="262.5" y="37.5" fill="#FFFFFF" stroke="#000000" stroke-miterlimit="10" width="37" height="38"/>
		<rect x="-0.5" y="75.5" fill="#FFFFFF" stroke="#000000" stroke-miterlimit="10" width="38" height="37"/>
		<rect x="37.5" y="75.5" fill="#FFFFFF" stroke="#000000" stroke-miterlimit="10" width="38" height="37"/>
		<rect x="75.5" y="75.5" fill="#FFFFFF" stroke="#000000" stroke-miterlimit="10" width="37" height="37"/>
		<rect x="112.5" y="75.5" fill="#FFFFFF" stroke="#000000" stroke-miterlimit="10" width="37" height="37"/>
		<rect x="149.5" y="75.5" fill="#FFFFFF" stroke="#000000" stroke-miterlimit="10" width="38" height="37"/>
		<rect x="187.5" y="75.5" fill="#FFFFFF" stroke="#000000" stroke-miterlimit="10" width="37" height="37"/>
		<rect x="224.5" y="75.5" fill="#FFFFFF" stroke="#000000" stroke-miterlimit="10" width="38" height="37"/>
		<rect x="262.5" y="75.5" fill="#FFFFFF" stroke="#000000" stroke-miterlimit="10" width="37" height="37"/>
		<rect x="-0.5" y="112.5" fill="#FFFFFF" stroke="#000000" stroke-miterlimit="10" width="38" height="38"/>
		<rect x="37.5" y="112.5" fill="#FFFFFF" stroke="#000000" stroke-miterlimit="10" width="38" height="38"/>
		<rect x="75.5" y="112.5" fill="#FFFFFF" stroke="#000000" stroke-miterlimit="10" width="37" height="38"/>
		<rect x="112.5" y="112.5" fill="#FFFFFF" stroke="#000000" stroke-miterlimit="10" width="37" height="38"/>
		<rect x="149.5" y="112.5" fill="#FFFFFF" stroke="#000000" stroke-miterlimit="10" width="38" height="38"/>
		<rect x="187.5" y="112.5" fill="#FFFFFF" stroke="#000000" stroke-miterlimit="10" width="37" height="38"/>
		<rect x="224.5" y="112.5" fill="#FFFFFF" stroke="#000000" stroke-miterlimit="10" width="38" height="38"/>
		<rect x="262.5" y="112.5" fill="#FFFFFF" stroke="#000000" stroke-miterlimit="10" width="37" height="38"/>
		<rect x="-0.5" y="150.5" fill="#FFFFFF" stroke="#000000" stroke-miterlimit="10" width="38" height="37"/>
		<rect x="37.5" y="150.5" fill="#FFFFFF" stroke="#000000" stroke-miterlimit="10" width="38" height="37"/>
		<rect x="75.5" y="150.5" fill="#FFFFFF" stroke="#000000" stroke-miterlimit="10" width="37" height="37"/>
		<rect x="112.5" y="150.5" fill="#FFFFFF" stroke="#000000" stroke-miterlimit="10" width="37" height="37"/>
		<rect x="149.5" y="150.5" fill="#FFFFFF" stroke="#000000" stroke-miterlimit="10" width="38" height="37"/>
		<rect x="187.5" y="150.5" fill="#FFFFFF" stroke="#000000" stroke-miterlimit="10" width="37" height="37"/>
		<rect x="224.5" y="150.5" fill="#FFFFFF" stroke="#000000" stroke-miterlimit="10" width="38" height="37"/>
		<rect x="262.5" y="150.5" fill="#FFFFFF" stroke="#000000" stroke-miterlimit="10" width="37" height="37"/>
		<rect x="-0.5" y="187.5" fill="#FFFFFF" stroke="#000000" stroke-miterlimit="10" width="38" height="38"/>
		<rect x="37.5" y="187.5" fill="#FFFFFF" stroke="#000000" stroke-miterlimit="10" width="38" height="38"/>
		<rect x="75.5" y="187.5" fill="#FFFFFF" stroke="#000000" stroke-miterlimit="10" width="37" height="38"/>
		<rect x="112.5" y="187.5" fill="#FFFFFF" stroke="#000000" stroke-miterlimit="10" width="37" height="38"/>
		<rect x="149.5" y="187.5" fill="#FFFFFF" stroke="#000000" stroke-miterlimit="10" width="38" height="38"/>
		<rect x="187.5" y="187.5" fill="#FFFFFF" stroke="#000000" stroke-miterlimit="10" width="37" height="38"/>
		<rect x="224.5" y="187.5" fill="#FFFFFF" stroke="#000000" stroke-miterlimit="10" width="38" height="38"/>
		<rect x="262.5" y="187.5" fill="#FFFFFF" stroke="#000000" stroke-miterlimit="10" width="37" height="38"/>
		<rect x="-0.5" y="225.5" fill="#FFFFFF" stroke="#000000" stroke-miterlimit="10" width="38" height="37"/>
		<rect x="37.5" y="225.5" fill="#FFFFFF" stroke="#000000" stroke-miterlimit="10" width="38" height="37"/>
		<rect x="75.5" y="225.5" fill="#FFFFFF" stroke="#000000" stroke-miterlimit="10" width="37" height="37"/>
		<rect x="112.5" y="225.5" fill="#FFFFFF" stroke="#000000" stroke-miterlimit="10" width="37" height="37"/>
		<rect x="149.5" y="225.5" fill="#FFFFFF" stroke="#000000" stroke-miterlimit="10" width="38" height="37"/>
		<rect x="187.5" y="225.5" fill="#FFFFFF" stroke="#000000" stroke-miterlimit="10" width="37" height="37"/>
		<rect x="224.5" y="225.5" fill="#FFFFFF" stroke="#000000" stroke-miterlimit="10" width="38" height="37"/>
		<rect x="262.5" y="225.5" fill="#FFFFFF" stroke="#000000" stroke-miterlimit="10" width="37" height="37"/>
		<rect x="-0.5" y="262.5" fill="#FFFFFF" stroke="#000000" stroke-miterlimit="10" width="38" height="38"/>
		<rect x="37.5" y="262.5" fill="#FFFFFF" stroke="#000000" stroke-miterlimit="10" width="38" height="38"/>
		<rect x="75.5" y="262.5" fill="#FFFFFF" stroke="#000000" stroke-miterlimit="10" width="37" height="38"/>
		<rect x="112.5" y="262.5" fill="#FFFFFF" stroke="#000000" stroke-miterlimit="10" width="37" height="38"/>
		<rect x="149.5" y="262.5" fill="#FFFFFF" stroke="#000000" stroke-miterlimit="10" width="38" height="38"/>
		<rect x="187.5" y="262.5" fill="#FFFFFF" stroke="#000000" stroke-miterlimit="10" width="37" height="38"/>
		<rect x="224.5" y="262.5" fill="#FFFFFF" stroke="#000000" stroke-miterlimit="10" width="38" height="38"/>
		<rect x="262.5" y="262.5" fill="#FFFFFF" stroke="#000000" stroke-miterlimit="10" width="37" height="38"/>
	</g>
</g>
<g id="Layer_2">
	<g id="stair">
	</g>
	<g id="step">
	</g>
	<g id="wisth">
	</g>
	<g id="alert">
	</g>
	<g id="light">
		<path stroke="#000000" stroke-miterlimit="10" d="M206.52,150.02c0,20.77-11.26,38.9-28.02,48.63V235
			c0,15.74-12.76,28.5-28.5,28.5s-28.5-12.76-28.5-28.5v-36.76c-16.37-9.82-27.33-27.74-27.33-48.22
			c0-31.02,25.16-56.17,56.18-56.17C181.38,93.85,206.52,119,206.52,150.02z"/>
		<g>
			<g>
				<line x1="150" y1="38" x2="150" y2="75"/>
				<rect x="145" y="38" width="10" height="37"/>
			</g>
			<g>
				<line x1="70.451" y1="70.951" x2="96.613" y2="97.113"/>
				<rect x="65.033" y="79.032" transform="matrix(0.7071 0.7071 -0.7071 0.7071 83.8867 -34.4538)" width="36.999" height="10"/>
			</g>
			<g>
				<line x1="37.5" y1="150.5" x2="74.5" y2="150.5"/>
				<rect x="37.5" y="145.5" width="37" height="10"/>
			</g>
			<g>
				<line x1="70.449" y1="230.049" x2="96.613" y2="203.887"/>
				<rect x="78.531" y="198.468" transform="matrix(0.707 0.7072 -0.7072 0.707 177.9145 4.4959)" width="10" height="37"/>
			</g>
			<g>
				<line x1="229.548" y1="230.051" x2="203.387" y2="203.887"/>
				<rect x="197.968" y="211.969" transform="matrix(0.7071 0.7071 -0.7071 0.7071 216.839 -89.5168)" width="37" height="10"/>
			</g>
			<g>
				<line x1="262.5" y1="150.502" x2="225.5" y2="150.5"/>
				<rect x="225.5" y="145.501" width="37" height="10"/>
			</g>
			<g>
				<line x1="229.551" y1="70.952" x2="203.387" y2="97.114"/>
				<rect x="211.469" y="65.533" transform="matrix(0.7071 0.7072 -0.7072 0.7071 122.8372 -128.4603)" width="10" height="37"/>
			</g>
		</g>
	</g>
	<g id="slope">
	</g>
</g>
</svg>
