<?xml version="1.0" encoding="utf-8"?>
<!-- Generator: Adobe Illustrator 16.0.0, SVG Export Plug-In . SVG Version: 6.00 Build 0)  -->
<!DOCTYPE svg PUBLIC "-//W3C//DTD SVG 1.1//EN" "http://www.w3.org/Graphics/SVG/1.1/DTD/svg11.dtd">
<svg version="1.1" xmlns="http://www.w3.org/2000/svg" xmlns:xlink="http://www.w3.org/1999/xlink" x="0px" y="0px" width="600px"
	 height="600px" viewBox="0 0 600 600" enable-background="new 0 0 600 600" xml:space="preserve">
<symbol  id="happyface" viewBox="-12 -11.75 24 23.5">
	<g>
		<g>
			<path fill="#FF4D4E" d="M11.25-1.25c0-5.522-4.477-10-10-10c-5.521,0-10,4.478-10,10s4.479,10,10,10
				C6.773,8.75,11.25,4.272,11.25-1.25z"/>
			<path fill="none" stroke="#FF4D4E" stroke-miterlimit="10" d="M11.25-1.25c0-5.522-4.477-10-10-10c-5.521,0-10,4.478-10,10
				s4.479,10,10,10C6.773,8.75,11.25,4.272,11.25-1.25z"/>
		</g>
		<g>
			<path fill="#FFFFFF" d="M8.75,1.25c0-5.522-4.477-10-10-10c-5.521,0-10,4.478-10,10s4.479,10,10,10
				C4.273,11.25,8.75,6.772,8.75,1.25z"/>
			<path fill="none" stroke="#FF4D4E" stroke-miterlimit="10" d="M8.75,1.25c0-5.522-4.477-10-10-10c-5.521,0-10,4.478-10,10
				s4.479,10,10,10C4.273,11.25,8.75,6.772,8.75,1.25z"/>
		</g>
	</g>
	<polygon display="none" fill="none" points="-12,11 12,11 12,-11 -12,-11 	"/>
</symbol>
<g id="BACK">
</g>
<g id="BASE">
	<g>
		<g>
			<path fill="#FFFFFF" d="M459.001,300c0,87.807-71.178,159-159,159c-87.791,0-159-71.193-159-159s71.209-159,159-159
				C387.823,141,459.001,212.193,459.001,300z"/>
			<path fill="none" stroke="#000000" stroke-width="16" stroke-miterlimit="10" d="M459.001,300c0,87.807-71.178,159-159,159
				c-87.791,0-159-71.193-159-159s71.209-159,159-159C387.823,141,459.001,212.193,459.001,300z"/>
		</g>
		<g>
			<path fill="none" stroke="#000000" stroke-width="16" stroke-linecap="round" stroke-miterlimit="10" d="M348.251,330.837
				c-11.785,13.634-28.601,22.158-47.296,22.158c-19.301,0-36.629-9.084-48.445-23.493"/>
			<g>
				<path fill="none" stroke="#000000" stroke-width="16" stroke-miterlimit="10" d="M259.59,279.473
					c0,4.037-3.26,7.298-7.297,7.298c-4.021,0-7.283-3.261-7.283-7.298c0-4.021,3.262-7.282,7.283-7.282
					C256.33,272.19,259.59,275.451,259.59,279.473z"/>
				<path fill="none" stroke="#000000" stroke-width="16" stroke-miterlimit="10" d="M354.99,279.473
					c0,4.037-3.261,7.298-7.298,7.298c-4.021,0-7.282-3.261-7.282-7.298c0-4.021,3.261-7.282,7.282-7.282
					C351.729,272.19,354.99,275.451,354.99,279.473z"/>
			</g>
		</g>
	</g>
</g>
<g id="FRONT">
	<g>
		<g>
			<path fill="#FFFFFF" d="M483.216,483.215c-31.044,31.045-81.38,31.05-112.43,0c-31.039-31.039-31.044-81.386,0-112.43
				c31.044-31.045,81.392-31.039,112.43,0C514.266,401.835,514.26,452.171,483.216,483.215z"/>
			<path fill="none" stroke="#000000" stroke-width="10" stroke-miterlimit="10" d="M483.216,483.215
				c-31.044,31.045-81.38,31.05-112.43,0c-31.039-31.039-31.044-81.386,0-112.43c31.044-31.045,81.392-31.039,112.43,0
				C514.266,401.835,514.26,452.171,483.216,483.215z"/>
		</g>
		<path fill="none" stroke="#000000" stroke-width="10" stroke-linecap="round" stroke-miterlimit="10" d="M422.283,444.086
			c-8.987,0.654-17.946-2.276-24.557-8.886c-6.823-6.824-9.737-16.163-8.821-25.435"/>
		<g>
			<path fill="none" stroke="#000000" stroke-width="10" stroke-miterlimit="10" d="M409.097,394.58
				c-1.428,1.428-3.732,1.428-5.159,0c-1.422-1.422-1.423-3.727,0.004-5.154c1.422-1.422,3.729-1.421,5.149,0
				C410.519,390.854,410.519,393.158,409.097,394.58z"/>
			<path fill="none" stroke="#000000" stroke-width="10" stroke-miterlimit="10" d="M442.826,428.31
				c-1.428,1.428-3.732,1.428-5.161-0.001c-1.421-1.421-1.421-3.727,0.006-5.154c1.422-1.422,3.728-1.421,5.148,0
				C444.248,424.583,444.248,426.888,442.826,428.31z"/>
		</g>
	</g>
</g>
</svg>
