<?xml version="1.0" encoding="utf-8"?>
<!-- Generator: Adobe Illustrator 16.0.0, SVG Export Plug-In . SVG Version: 6.00 Build 0)  -->
<!DOCTYPE svg PUBLIC "-//W3C//DTD SVG 1.1//EN" "http://www.w3.org/Graphics/SVG/1.1/DTD/svg11.dtd">
<svg version="1.1" xmlns="http://www.w3.org/2000/svg" xmlns:xlink="http://www.w3.org/1999/xlink" x="0px" y="0px" width="600px"
	 height="600px" viewBox="0 0 600 600" enable-background="new 0 0 600 600" xml:space="preserve">
<symbol  id="happyface" viewBox="-12 -11.75 24 23.5">
	<g>
		<g>
			<path fill="#FF4D4E" d="M11.25-1.25c0-5.522-4.477-10-10-10c-5.521,0-10,4.478-10,10s4.479,10,10,10
				C6.773,8.75,11.25,4.272,11.25-1.25z"/>
			<path fill="none" stroke="#FF4D4E" stroke-miterlimit="10" d="M11.25-1.25c0-5.522-4.477-10-10-10c-5.521,0-10,4.478-10,10
				s4.479,10,10,10C6.773,8.75,11.25,4.272,11.25-1.25z"/>
		</g>
		<g>
			<path fill="#FFFFFF" d="M8.75,1.25c0-5.522-4.477-10-10-10c-5.521,0-10,4.478-10,10s4.479,10,10,10
				C4.273,11.25,8.75,6.772,8.75,1.25z"/>
			<path fill="none" stroke="#FF4D4E" stroke-miterlimit="10" d="M8.75,1.25c0-5.522-4.477-10-10-10c-5.521,0-10,4.478-10,10
				s4.479,10,10,10C4.273,11.25,8.75,6.772,8.75,1.25z"/>
		</g>
	</g>
	<polygon display="none" fill="none" points="-12,11 12,11 12,-11 -12,-11 	"/>
</symbol>
<g id="BACK">
	<circle fill="#FFFFFF" stroke="#000000" stroke-width="10" stroke-miterlimit="10" cx="382" cy="459" r="96.333"/>
</g>
<g id="BASE">
	<g>
		<g>
			<path fill="#FFFFFF" d="M459,300c0,87.807-71.178,159-159,159c-87.791,0-159-71.193-159-159s71.209-159,159-159
				C387.822,141,459,212.193,459,300z"/>
			<path fill="none" stroke="#000000" stroke-width="16" stroke-miterlimit="10" d="M459,300c0,87.807-71.178,159-159,159
				c-87.791,0-159-71.193-159-159s71.209-159,159-159C387.822,141,459,212.193,459,300z"/>
		</g>
		<path fill="none" stroke="#000000" stroke-width="16" stroke-linecap="round" stroke-miterlimit="10" d="M347.871,330.837
			c-11.785,13.634-28.602,22.158-47.296,22.158c-19.301,0-36.629-9.084-48.445-23.493"/>
		<g>
			<path fill="none" stroke="#000000" stroke-width="16" stroke-miterlimit="10" d="M259.59,279.473c0,4.037-3.26,7.298-7.297,7.298
				c-4.021,0-7.283-3.261-7.283-7.298c0-4.021,3.262-7.282,7.283-7.282C256.33,272.19,259.59,275.451,259.59,279.473z"/>
			<path fill="none" stroke="#000000" stroke-width="16" stroke-miterlimit="10" d="M354.99,279.473
				c0,4.037-3.261,7.298-7.298,7.298c-4.021,0-7.282-3.261-7.282-7.298c0-4.021,3.261-7.282,7.282-7.282
				C351.729,272.19,354.99,275.451,354.99,279.473z"/>
		</g>
	</g>
</g>
<g id="FRONT">
	<circle fill="#FFFFFF" stroke="#000000" stroke-width="10" stroke-miterlimit="10" cx="218" cy="459" r="96.333"/>
</g>
</svg>
